<?xml version="1.0" encoding="UTF-8" standalone="no"?>
<!-- Created with Inkscape (http://www.inkscape.org/) -->

<svg
   xmlns:dc="http://purl.org/dc/elements/1.1/"
   xmlns:cc="http://creativecommons.org/ns#"
   xmlns:rdf="http://www.w3.org/1999/02/22-rdf-syntax-ns#"
   xmlns:svg="http://www.w3.org/2000/svg"
   xmlns="http://www.w3.org/2000/svg"
   xmlns:sodipodi="http://sodipodi.sourceforge.net/DTD/sodipodi-0.dtd"
   xmlns:inkscape="http://www.inkscape.org/namespaces/inkscape"
   width="300"
   height="300"
   viewBox="0 0 79.374998 79.375002"
   version="1.1"
   id="svg3727"
   inkscape:version="0.92.5 (2060ec1f9f, 2020-04-08)"
   sodipodi:docname="2.svg">
  <defs
     id="defs3721" />
  <sodipodi:namedview
     id="base"
     pagecolor="#ffffff"
     bordercolor="#666666"
     borderopacity="1.0"
     inkscape:pageopacity="0.0"
     inkscape:pageshadow="2"
     inkscape:zoom="1.4"
     inkscape:cx="120.07467"
     inkscape:cy="130.16512"
     inkscape:document-units="px"
     inkscape:current-layer="layer1"
     showgrid="false"
     units="px"
     showguides="true"
     inkscape:guide-bbox="true"
     inkscape:window-width="1600"
     inkscape:window-height="817"
     inkscape:window-x="0"
     inkscape:window-y="28"
     inkscape:window-maximized="1">
    <sodipodi:guide
       position="40.821428,48.380952"
       orientation="1,0"
       id="guide3729"
       inkscape:locked="false" />
    <sodipodi:guide
       position="40.821428,4.1577382"
       orientation="1,0"
       id="guide3731"
       inkscape:locked="false" />
    <sodipodi:guide
       position="20.78869,13.796131"
       orientation="0,1"
       id="guide3733"
       inkscape:locked="false" />
    <sodipodi:guide
       position="40.821428,66.33482"
       orientation="0,1"
       id="guide3735"
       inkscape:locked="false" />
  </sodipodi:namedview>
  <metadata
     id="metadata3724">
    <rdf:RDF>
      <cc:Work
         rdf:about="">
        <dc:format>image/svg+xml</dc:format>
        <dc:type
           rdf:resource="http://purl.org/dc/dcmitype/StillImage" />
        <dc:title></dc:title>
      </cc:Work>
    </rdf:RDF>
  </metadata>
  <g
     inkscape:label="Capa 1"
     inkscape:groupmode="layer"
     id="layer1"
     transform="translate(0,-217.62498)">
    <ellipse
       style="fill:none;stroke:#000000;stroke-width:4.06846857;stroke-linecap:round;stroke-miterlimit:4;stroke-dasharray:none;stroke-opacity:1"
       id="path4609"
       cx="167.44846"
       cy="225.13031"
       rx="9.7075815"
       ry="16.259403"
       transform="matrix(0.88125454,0.47264198,-0.52786547,0.849328,0,0)" />
    <ellipse
       transform="matrix(0.88125454,0.47264198,-0.52786547,0.849328,0,0)"
       ry="16.259403"
       rx="9.7075815"
       cy="187.68034"
       cx="173.96739"
       id="ellipse4611"
       style="fill:none;stroke:#000000;stroke-width:4.06846857;stroke-linecap:round;stroke-miterlimit:4;stroke-dasharray:none;stroke-opacity:1" />
    <path
       style="fill:none;stroke:#000000;stroke-width:2.98979152;stroke-linecap:butt;stroke-linejoin:miter;stroke-opacity:1;stroke-miterlimit:4;stroke-dasharray:none"
       d="m 38.931546,259.20236 c -0.251984,-0.25199 -0.542137,-0.47087 -0.755952,-0.75595 -0.0378,-0.0504 0.144444,0.0445 0.18899,0 0,-0.50397 -0.063,0.063 0.188986,-0.18899 0.04454,-0.0446 -0.04455,-0.14444 0,-0.18899 0.04454,-0.0445 0.144444,0.0445 0.188989,0 0.04455,-0.0445 -0.04454,-0.14444 0,-0.18899 0.391023,-0.39102 -0.01529,0.59754 0.377976,-0.18899 0.02817,-0.0563 -0.04454,-0.14444 0,-0.18898 0.09449,-0.0945 0.472469,0.0945 0.566965,0 0.04454,-0.0445 -0.04454,-0.14445 0,-0.18899 0.08909,-0.0891 0.288885,0.0891 0.377976,0 0.08909,-0.0891 -0.08909,-0.28889 0,-0.37798 0.04454,-0.0445 0.144444,0.0446 0.188987,0 0.04455,-0.0445 -0.04454,-0.14444 0,-0.18899 0.08909,-0.0891 0.288888,0.0891 0.377978,0 0.04454,-0.0445 -0.04454,-0.14444 0,-0.18899 0.04454,-0.0445 0.125992,0 0.188987,0 0,-0.063 -0.04455,-0.14444 0,-0.18898 0.04454,-0.0446 0.144444,0.0445 0.188989,0 0.08909,-0.0891 -0.08909,-0.28889 0,-0.37798 0.08909,-0.0891 0.288885,0.0891 0.377976,0 0.04454,-0.0445 -0.04455,-0.14444 0,-0.18899 0.04454,-0.0445 0.132643,0.0282 0.188986,0 0.786524,-0.39326 -0.202033,0.013 0.188989,-0.37797 0.04455,-0.0446 0.144444,0.0445 0.18899,0 0.08909,-0.0891 -0.08909,-0.28889 0,-0.37798 0.04454,-0.0445 0.144441,0.0446 0.188986,0 0.04455,-0.0445 -0.04454,-0.14444 0,-0.18899 0.04455,-0.0445 0.144444,0.0445 0.188989,0 0.04455,-0.0445 -0.04454,-0.14444 0,-0.18898 0.04455,-0.0445 0.144442,0.0445 0.188987,0 0.04454,-0.0445 -0.04455,-0.14445 0,-0.18899 0.04454,-0.0446 0.144444,0.0445 0.188989,0 0.09449,-0.0945 -0.09449,-0.47247 0,-0.56697 0.04455,-0.0445 0.144444,0.0445 0.188987,0 0.0086,-0.009 0,-0.85583 0,-0.94494"
       id="path4613"
       inkscape:connector-curvature="0" />
  </g>
</svg>
