<?xml version="1.0"?><svg version="1.1" id="圖層_1" xmlns="http://www.w3.org/2000/svg" x="0" y="0" viewBox="0 0 100 100" xml:space="preserve"><circle cx="50" cy="50" r="32.5" fill="#6079bd"/><ellipse cx="41" cy="49.9" rx="9" ry="7.2" fill="#405a9e"/><g><path d="M62.1 56.5c-2.5 1-5.1 1.6-7.8 2.1-2.6.5-5.3.7-8 .8-2.7.1-5.4-.1-8-.5-2.7-.4-5.3-1.1-7.7-2.4l7.9-.2 7.8-.2c2.6-.1 5.2-.1 7.8-.1 2.7 0 5.3.1 8 .5z" fill="#e6e6e6"/></g><path d="M77.5 67.4c-1.5 0-3.1 0-4.6.1-5.2.1-10.3.3-15.5.6-2.6.1-5.1.4-7.7.9-2.6.5-5.1 1.2-7.7 1.7-1.3.2-2.6.5-3.9.6-1.3.2-2.6.2-3.9.4l-4 .2c-1.3.1-2.6.1-4 .1l3.9.9 3.9.8c2.6.5 5.2 1 7.9 1.6 2.7.6 5.3 1.2 8 1.6 2.7.4 5.4.4 8.1.2 4.4-.4 8.7-1.2 13-2.3 2.5-2.2 4.7-4.6 6.5-7.4z" fill="#405a9e"/><path d="M45.5 29.9c5.6-.4 11.2-.7 16.8-.7 4.2-.1 8.5 0 12.8.1-.5-.6-1-1.1-1.5-1.7-3.6-.9-7.3-1.6-11.1-2-5.7-.6-11.6-.7-17.3-.2-5.8.5-11.5 1.5-17.1 3-1 .3-2.1.6-3.1.9-.9 1.1-1.8 2.3-2.6 3.6 2.1-.4 4.3-.7 6.4-1 5.6-.9 11.1-1.6 16.7-2z" fill="#405a9e"/><g><path d="M41 28.9c1.8-.6 3.7-.9 5.6-1.2 1.9-.3 3.8-.4 5.7-.5 1.9 0 3.8 0 5.7.3 1.9.2 3.8.7 5.5 1.4-1.9-.1-3.8-.2-5.6-.2-1.9 0-3.7 0-5.6.1l-5.6.1c-1.9.1-3.8.1-5.7 0z" fill="#e6e6e6"/></g><metadata xmlns:d="https://loading.io/stock/">
<d:name>neptune</d:name>
<d:tags>star,solar system,planet,neptune,astrology</d:tags>
<d:license>by</d:license>
<d:slug>ud16ha</d:slug>
</metadata></svg>