<?xml version="1.0" encoding="UTF-8" standalone="no"?>
<!-- Created with Inkscape (http://www.inkscape.org/) -->

<svg
   xmlns:dc="http://purl.org/dc/elements/1.1/"
   xmlns:cc="http://creativecommons.org/ns#"
   xmlns:rdf="http://www.w3.org/1999/02/22-rdf-syntax-ns#"
   xmlns:svg="http://www.w3.org/2000/svg"
   xmlns="http://www.w3.org/2000/svg"
   xmlns:sodipodi="http://sodipodi.sourceforge.net/DTD/sodipodi-0.dtd"
   xmlns:inkscape="http://www.inkscape.org/namespaces/inkscape"
   width="800"
   height="600"
   viewBox="0 0 211.66666 158.75"
   version="1.1"
   id="svg821"
   inkscape:version="0.92.5 (2060ec1f9f, 2020-04-08)"
   sodipodi:docname="nube_1.svg">
  <defs
     id="defs815" />
  <sodipodi:namedview
     id="base"
     pagecolor="#ffffff"
     bordercolor="#666666"
     borderopacity="1.0"
     inkscape:pageopacity="0.0"
     inkscape:pageshadow="2"
     inkscape:zoom="0.35"
     inkscape:cx="399.56047"
     inkscape:cy="176.08316"
     inkscape:document-units="mm"
     inkscape:current-layer="layer1"
     showgrid="false"
     units="px"
     inkscape:window-width="1280"
     inkscape:window-height="936"
     inkscape:window-x="0"
     inkscape:window-y="28"
     inkscape:window-maximized="1" />
  <metadata
     id="metadata818">
    <rdf:RDF>
      <cc:Work
         rdf:about="">
        <dc:format>image/svg+xml</dc:format>
        <dc:type
           rdf:resource="http://purl.org/dc/dcmitype/StillImage" />
        <dc:title></dc:title>
      </cc:Work>
    </rdf:RDF>
  </metadata>
  <g
     inkscape:label="Capa 1"
     inkscape:groupmode="layer"
     id="layer1"
     transform="translate(0,-138.24998)">
    <path
       style="fill:#ffffff;stroke:none;stroke-width:4.894;stroke-linecap:butt;stroke-linejoin:miter;stroke-miterlimit:4;stroke-dasharray:none;stroke-opacity:1;fill-opacity:1"
       d="m 39.012116,218.95334 c -0.788064,7.1046 1.135897,12.9127 -4.535716,16.53855 -10.70294,6.84239 -17.526504,1.51282 -21.930484,12.38023 -1.924611,4.74923 2.367436,14.04313 15.126915,10.2649 13.14733,-3.89308 12.903562,9.86451 27.412094,2.6476 9.0382,-4.49583 14.510092,-6.67222 27.772427,-4.68312 10.964497,1.64448 11.312177,5.26429 24.946428,-1.52663 38.71386,-2.11416 17.63077,6.38265 51.70215,-9.75601 12.8666,-3.80812 17.77456,1.49495 30.38353,-9.00329 11.2673,-9.38117 12.66901,-22.89489 4.98642,-34.19059 -12.94204,-19.02867 -32.86031,-40.92204 -47.08721,4.26463 -17.20746,11.84842 -22.15778,-2.66069 -30.1575,-17.72345 -5.12497,-20.47565 -35.983095,-22.6683 -34.01786,2.79884 1.014511,13.14686 -10.205362,12.97641 -10.205362,12.97641 -10.484807,3.35414 -28.071958,-19.4633 -34.395832,15.01193 z"
       id="path1366"
       inkscape:connector-curvature="0"
       sodipodi:nodetypes="csssssccssccscc" />
  </g>
</svg>
