<?xml version="1.0" encoding="UTF-8" standalone="no"?>
<!-- Created with Inkscape (http://www.inkscape.org/) -->

<svg
   width="640"
   height="640"
   viewBox="0 0 600 600"
   id="svg4136"
   version="1.1"
   inkscape:version="1.2.2 (1:1.2.2+202212051550+b0a8486541)"
   sodipodi:docname="lilith.svg"
   inkscape:export-filename="lilith_i.png"
   inkscape:export-xdpi="96"
   inkscape:export-ydpi="96"
   xmlns:inkscape="http://www.inkscape.org/namespaces/inkscape"
   xmlns:sodipodi="http://sodipodi.sourceforge.net/DTD/sodipodi-0.dtd"
   xmlns="http://www.w3.org/2000/svg"
   xmlns:svg="http://www.w3.org/2000/svg"
   xmlns:rdf="http://www.w3.org/1999/02/22-rdf-syntax-ns#"
   xmlns:cc="http://creativecommons.org/ns#"
   xmlns:dc="http://purl.org/dc/elements/1.1/">
  <defs
     id="defs4138" />
  <sodipodi:namedview
     id="base"
     pagecolor="#ffffff"
     bordercolor="#666666"
     borderopacity="1.0"
     inkscape:pageopacity="0.0"
     inkscape:pageshadow="2"
     inkscape:zoom="0.24748737"
     inkscape:cx="-472.75139"
     inkscape:cy="404.06102"
     inkscape:document-units="px"
     inkscape:current-layer="layer1"
     showgrid="false"
     units="px"
     inkscape:window-width="1920"
     inkscape:window-height="992"
     inkscape:window-x="0"
     inkscape:window-y="30"
     inkscape:window-maximized="1"
     inkscape:showpageshadow="2"
     inkscape:pagecheckerboard="0"
     inkscape:deskcolor="#d1d1d1" />
  <metadata
     id="metadata4141">
    <rdf:RDF>
      <cc:Work
         rdf:about="">
        <dc:format>image/svg+xml</dc:format>
        <dc:type
           rdf:resource="http://purl.org/dc/dcmitype/StillImage" />
        <dc:title />
      </cc:Work>
    </rdf:RDF>
  </metadata>
  <g
     inkscape:label="Capa 1"
     inkscape:groupmode="layer"
     id="layer1"
     transform="translate(0,-452.36216)">
    <path
       style="opacity:1;fill:#000000;fill-opacity:1;stroke:none;stroke-width:14.3;stroke-linejoin:miter;stroke-miterlimit:33.5;stroke-dasharray:none;stroke-opacity:1"
       d="m 289.55011,514.6894 c 3.23699,-0.0304 6.47403,0.0536 9.70508,0.25195 37.71798,2.35071 72.79966,20.14307 96.98047,49.18555 -17.6581,-13.70239 -39.03511,-21.76642 -61.34375,-23.14062 -61.30388,-3.76763 -114.0559,42.87219 -117.82813,104.17578 -3.05254,50.67041 28.59184,96.97775 76.90821,112.54492 h 13.92969 v 3.56445 c 4.40384,0.84367 8.85467,1.42024 13.32812,1.72656 27.07406,1.61677 53.80578,-6.71566 75.16602,-23.42968 -22.26375,26.83283 -53.90156,44.19106 -88.49414,48.55273 v 67.75195 h 47.80078 v 36.00196 H 307.90168 V 990.041 h -34.34376 v -98.16605 h -47.80078 v -36.00196 h 47.80078 V 788.18354 C 201.75679,779.07725 149.35224,715.80127 153.78253,643.56049 158.20805,571.63121 217.48818,515.3623 289.55011,514.6894 Z"
       id="path4902"
       inkscape:connector-curvature="0"
       sodipodi:nodetypes="cccccccccccccccccccccccc" />
  </g>
</svg>
