<?xml version="1.0" encoding="UTF-8" standalone="no"?>
<!-- Created with Inkscape (http://www.inkscape.org/) -->

<svg
   xmlns:dc="http://purl.org/dc/elements/1.1/"
   xmlns:cc="http://creativecommons.org/ns#"
   xmlns:rdf="http://www.w3.org/1999/02/22-rdf-syntax-ns#"
   xmlns:svg="http://www.w3.org/2000/svg"
   xmlns="http://www.w3.org/2000/svg"
   xmlns:sodipodi="http://sodipodi.sourceforge.net/DTD/sodipodi-0.dtd"
   xmlns:inkscape="http://www.inkscape.org/namespaces/inkscape"
   width="600"
   height="600"
   viewBox="0 0 600.00001 600.00001"
   id="svg4136"
   version="1.1"
   inkscape:version="0.91 r13725"
   sodipodi:docname="neptune.svg">
  <defs
     id="defs4138" />
  <sodipodi:namedview
     id="base"
     pagecolor="#ffffff"
     bordercolor="#666666"
     borderopacity="1.0"
     inkscape:pageopacity="0.0"
     inkscape:pageshadow="2"
     inkscape:zoom="0.35"
     inkscape:cx="231.67241"
     inkscape:cy="993.00227"
     inkscape:document-units="px"
     inkscape:current-layer="layer1"
     showgrid="false"
     units="px"
     inkscape:window-width="1280"
     inkscape:window-height="952"
     inkscape:window-x="0"
     inkscape:window-y="24"
     inkscape:window-maximized="1"
     showguides="false" />
  <metadata
     id="metadata4141">
    <rdf:RDF>
      <cc:Work
         rdf:about="">
        <dc:format>image/svg+xml</dc:format>
        <dc:type
           rdf:resource="http://purl.org/dc/dcmitype/StillImage" />
        <dc:title></dc:title>
      </cc:Work>
    </rdf:RDF>
  </metadata>
  <g
     inkscape:label="Capa 1"
     inkscape:groupmode="layer"
     id="layer1"
     transform="translate(0,-452.36216)">
    <g
       id="g5340"
       transform="matrix(1.2107125,0,0,1.2107125,-63.076455,-77.080622)">
      <path
         sodipodi:nodetypes="cccc"
         inkscape:connector-curvature="0"
         id="path5120"
         d="m 99.53591,496.36734 c 55.58005,1.64004 115.83114,-6.04261 137.82629,155.6126 -1.45647,117.29287 -79.03281,173.92066 -137.82629,174.50841 111.38894,-121.7771 92.25021,-236.74157 0,-330.12101 z"
         style="fill:#000000;fill-opacity:1;fill-rule:evenodd;stroke:none;stroke-width:1px;stroke-linecap:butt;stroke-linejoin:miter;stroke-opacity:1" />
      <path
         style="fill:#000000;fill-opacity:1;fill-rule:evenodd;stroke:none;stroke-width:1px;stroke-linecap:butt;stroke-linejoin:miter;stroke-opacity:1"
         d="m 500.46409,496.36734 c -55.58005,1.64004 -115.83114,-6.04261 -137.82629,155.6126 1.45647,117.29287 79.03281,173.92066 137.82629,174.50841 -111.38894,-121.7771 -92.25021,-236.74157 0,-330.12101 z"
         id="path5122"
         inkscape:connector-curvature="0"
         sodipodi:nodetypes="cccc" />
      <g
         id="g5319">
        <path
           id="rect5116"
           d="m 265.75736,497.98911 68.48526,0 c 0,0 0,0 0,0 l 0,419.10528 c 0,0 0,0 0,0 l -68.48526,0 c 0,0 -1e-5,0 -1e-5,0 l 0,-419.10528 c 0,0 1e-5,0 1e-5,0 z"
           style="opacity:1;fill:#000000;fill-opacity:1;stroke:#000000;stroke-width:2.11242008;stroke-linejoin:miter;stroke-miterlimit:33.5;stroke-dasharray:none;stroke-opacity:1"
           inkscape:connector-curvature="0" />
        <path
           sodipodi:nodetypes="ccccsccc"
           inkscape:connector-curvature="0"
           id="rect5118"
           d="m 132.26717,787.7782 171.5371,0 1e-5,0 0,41.44434 -1e-5,0 -171.5371,0 -33.84011,0 z"
           style="opacity:1;fill:#000000;fill-opacity:1;stroke:#000000;stroke-width:1.83344293;stroke-linejoin:miter;stroke-miterlimit:33.5;stroke-dasharray:none;stroke-opacity:1" />
        <g
           id="g5315"
           transform="translate(3.2907157,0)">
          <path
             sodipodi:nodetypes="cc"
             inkscape:connector-curvature="0"
             id="path4211"
             d="m 362.98412,545.7411 -78.3735,-81.87176"
             style="fill:none;fill-rule:evenodd;stroke:#000000;stroke-width:34.26423645;stroke-linecap:butt;stroke-linejoin:miter;stroke-miterlimit:4;stroke-dasharray:none;stroke-opacity:1" />
          <path
             sodipodi:nodetypes="cc"
             style="fill:none;fill-rule:evenodd;stroke:#000000;stroke-width:33.7895813;stroke-linecap:butt;stroke-linejoin:miter;stroke-miterlimit:4;stroke-dasharray:none;stroke-opacity:1"
             d="m 230.26301,545.17402 77.2878,-80.7376"
             id="path4213"
             inkscape:connector-curvature="0" />
        </g>
      </g>
      <g
         transform="matrix(-1,0,0,1,599.7732,0)"
         id="g5328">
        <path
           inkscape:connector-curvature="0"
           style="opacity:1;fill:#000000;fill-opacity:1;stroke:#000000;stroke-width:2.11242008;stroke-linejoin:miter;stroke-miterlimit:33.5;stroke-dasharray:none;stroke-opacity:1"
           d="m 265.75736,497.98911 68.48526,0 c 0,0 0,0 0,0 l 0,419.10528 c 0,0 0,0 0,0 l -68.48526,0 c 0,0 -1e-5,0 -1e-5,0 l 0,-419.10528 c 0,0 1e-5,0 1e-5,0 z"
           id="path5330" />
        <path
           style="opacity:1;fill:#000000;fill-opacity:1;stroke:#000000;stroke-width:1.83344293;stroke-linejoin:miter;stroke-miterlimit:33.5;stroke-dasharray:none;stroke-opacity:1"
           d="m 132.26717,787.7782 171.5371,0 1e-5,0 0,41.44434 -1e-5,0 -171.5371,0 -33.84011,0 z"
           id="path5332"
           inkscape:connector-curvature="0"
           sodipodi:nodetypes="ccccsccc" />
        <g
           transform="translate(3.2907157,0)"
           id="g5334">
          <path
             style="fill:none;fill-rule:evenodd;stroke:#000000;stroke-width:34.26423645;stroke-linecap:butt;stroke-linejoin:miter;stroke-miterlimit:4;stroke-dasharray:none;stroke-opacity:1"
             d="m 362.98412,545.7411 -78.3735,-81.87176"
             id="path5336"
             inkscape:connector-curvature="0"
             sodipodi:nodetypes="cc" />
          <path
             inkscape:connector-curvature="0"
             id="path5338"
             d="m 230.26301,545.17402 77.2878,-80.7376"
             style="fill:none;fill-rule:evenodd;stroke:#000000;stroke-width:33.7895813;stroke-linecap:butt;stroke-linejoin:miter;stroke-miterlimit:4;stroke-dasharray:none;stroke-opacity:1"
             sodipodi:nodetypes="cc" />
        </g>
      </g>
    </g>
  </g>
</svg>
