<?xml version="1.0"?><svg version="1.1" id="圖層_1" xmlns="http://www.w3.org/2000/svg" x="0" y="0" viewBox="0 0 100 100" xml:space="preserve"><circle cx="50" cy="50" r="32.5" fill="#c59b6d"/><path d="M35.7 59.6h2.5c.8 0 1.7-.1 2.5-.1l2.5-.1 2.5-.2 2.5-.2 2.5-.3 2.4-.3 2.4-.5c1.6-.3 3.2-.8 4.8-1.2.8-.2 1.6-.4 2.4-.5.8-.2 1.6-.4 2.4-.5 1.6-.2 3.2-.4 4.9-.5 3.3-.2 6.7-.2 10.2 0 .6 0 1.3.1 1.9.1.3-1.7.4-3.4.4-5.1 0-.6 0-1.2-.1-1.9-4-.2-8.1-.2-12.1-.2-6.8 0-13.6.5-20.3 1.1-3.4.3-6.8.8-10.1 1.3-3.4.5-6.7.8-10.1.8-3.4 0-6.8-.2-10.2-.5-.7-.1-1.4-.2-2.1-.2 0 2.7.4 5.4 1 7.9 4.1.7 8.1 1.1 12.2 1.3 1.7-.3 3.4-.2 5-.2z" fill="#c59b6d"/><path d="M29.5 43.6c3.4-.3 6.8-.2 10.3.2 3.4.4 6.8.8 10.2 1.1 6.8.5 13.6 1.2 20.4 1.7l12 .9c-.2-3-.9-6-1.9-8.7-2.5-.3-5-.5-7.5-.7-6.8-.5-13.5-.8-20.3-.8-6.8 0-13.5.3-20.3.8-4.4.4-8.8.8-13.2 1.3-.7 1.9-1.1 3.9-1.4 6l1.5-.3c3.4-.7 6.8-1.2 10.2-1.5z" fill="#c59b6d"/><path d="M52.7 32.3c7 0 14 .6 20.8 2 1.9.4 3.7.8 5.5 1.2-5.3-10.7-16.3-18-29.1-18-13.4 0-25 8.1-29.9 19.8 3.9-1.2 7.8-2.2 11.9-3 6.9-1.4 13.9-2 20.8-2z" fill="#c59b6d"/><path d="M67.5 71.1l-2.7.3H62l-2.8-.1-2.8-.2-2.7-.1-2.8-.2-2.7-.2-2.7-.3-2.7-.3-2.8-.5c-.9-.2-1.8-.3-2.7-.5l-2.7-.6c-1.8-.4-3.5-.9-5.3-1.4-3-1-6-2.1-8.9-3.3 5.2 11 16.5 18.8 29.6 18.8 11.1 0 20.9-5.6 26.8-14.1l-3.9 1.5c-1.8.6-3.6 1-5.4 1.2z" fill="#c59b6d"/><path d="M80.2 55c-3.5-.2-6.9-.1-10.2 0-1.7.1-3.3.3-4.9.5-.8.1-1.6.3-2.4.5-.8.2-1.6.3-2.4.5-1.6.4-3.2.9-4.8 1.2l-2.4.5-2.4.3-2.5.3-2.5.2-2.5.2-2.5.1c-.8 0-1.7.1-2.5.1h-2.5c-1.7 0-3.3-.1-5-.1-4.1-.2-8.1-.6-12.2-1.3.5 1.9 1.1 3.7 1.9 5.4 2.9 1.3 5.9 2.4 8.9 3.3 1.7.5 3.5 1 5.3 1.4l2.7.6c.9.2 1.8.3 2.7.5l2.7.4 2.7.3 2.7.3 2.7.2 2.8.2 2.8.2 2.8.2 2.8.1h2.8l2.7-.3c1.8-.2 3.6-.7 5.4-1.2 1.3-.4 2.6-.9 3.9-1.5 2.7-3.9 4.6-8.5 5.3-13.4-.6.3-1.3.3-1.9.3z" fill="#e6e6e6"/><path d="M52.7 37.3c6.8 0 13.5.3 20.3.8 2.5.2 5 .4 7.5.7-.4-1.2-.9-2.3-1.5-3.4-1.8-.5-3.7-.9-5.5-1.2-6.8-1.3-13.8-2-20.8-2s-14 .6-20.8 2c-4 .8-8 1.8-11.9 3-.3.7-.6 1.5-.8 2.2 4.4-.5 8.8-1 13.2-1.3 6.8-.5 13.6-.8 20.3-.8z" fill="#e6e6e6"/><path d="M29.8 51c3.4 0 6.7-.2 10.1-.8 3.4-.5 6.7-1 10.1-1.3 6.8-.5 13.5-1 20.3-1.1 4 0 8.1.1 12.1.2v-.6c-4-.3-8-.7-12-.9-6.8-.5-13.6-1.2-20.4-1.7-3.4-.2-6.8-.7-10.2-1.1-3.4-.4-6.8-.5-10.3-.2-3.4.3-6.8.8-10.2 1.5l-1.5.3c-.2 1.5-.3 3-.3 4.5v.3c.7.1 1.4.2 2.1.2 3.4.5 6.8.7 10.2.7z" fill="#fff"/><ellipse transform="rotate(-5.209 68.276 62.833) scale(1.00003)" cx="68.3" cy="62.8" rx="6.7" ry="4.9" fill="#f47e60"/><metadata xmlns:d="https://loading.io/stock/">
<d:name>jupiter</d:name>
<d:tags>star,solar system,planet,jupiter,astrology</d:tags>
<d:license>by</d:license>
<d:slug>m70z8v</d:slug>
</metadata></svg>